# xmcd
#
# Track frame offsets:
#	150
#	14891
#	28457
#	42046
#	56610
#	68800
#	82655
#	95895
#	104470
#	117365
#	131651
#	145146
#	158086
#	172443
#	186275
#	199667
#
# Disc length: 2856 seconds
#
# Revision: 1
# Processed by: cddbd v1.5.2PL0 Copyright (c) Steve Scherf et al.
# Submitted via: audiograbber 1.83.01
#
DISCID=ed0b2610
DTITLE=Diverse - Southern Sanctified Singers
DYEAR=1900
DGENRE=Gospel
TTITLE0=Go With Me To That Land (Blind Willie Johnson)
TTITLE1=A Mother's Last Word To Her Daughter (Washington Philli)
TTITLE2=The Great Reaping Day (Bessie Johnson)
TTITLE3=I Want My Crown (Bozie Sturdivant)
TTITLE4=Christians Fight On (Sam Butler)
TTITLE5=Vour Enemy Cannot Harm You (Rev)
TTITLE6=In That Day (Arizona Dranes)
TTITLE7=When The Saints Go Marching In (Blind Willie Davis)
TTITLE8=Jonah In The Wilderness (Henry Thomas)
TTITLE9=I've Got The Key To The Kingdom
TTITLE10=Put Yout Trust In Jesus (Rev J C Burnett)
TTITLE11=Heaven Is My View (Sam Butler)
TTITLE12=I'll Be Satisfied (Blind Joe Taggart)
TTITLE13=There's A City Build Of Mansions (Nugrape Twins)
TTITLE14=The Gospel Train Is Coming (The Guitar Evangelist)
TTITLE15=Holy Mountain (Elder Otis Jones)
EXTD=
EXTT0=
EXTT1=
EXTT2=
EXTT3=
EXTT4=
EXTT5=
EXTT6=
EXTT7=
EXTT8=
EXTT9=
EXTT10=
EXTT11=
EXTT12=
EXTT13=
EXTT14=
EXTT15=
PLAYORDER=
